<svg viewBox="0 0 14 14" xmlns="http://www.w3.org/2000/svg" id="sparkle">
  <path d="M7 1.15a.55.55 0 0 1 .51.35l.83 2.15c.08.2.24.36.44.44l2.15.83a.55.55 0 0 1 0 1.03l-2.15.83a.78.78 0 0 0-.44.44l-.83 2.15a.55.55 0 0 1-1.03 0l-.83-2.15a.78.78 0 0 0-.44-.44l-2.15-.83a.55.55 0 0 1 0-1.03l2.15-.83c.2-.08.36-.24.44-.44l.83-2.15A.55.55 0 0 1 7 1.15Zm0 2.04-.45 1.16c-.19.49-.58.88-1.07 1.07L4.32 5.9l1.16.45c.49.19.88.58 1.07 1.07L7 8.58l.45-1.16c.19-.49.58-.88 1.07-1.07l1.16-.45-1.16-.45a1.9 1.9 0 0 1-1.07-1.07L7 3.19ZM3.08 8.75c.24 0 .46.15.54.38l.2.57c.05.15.17.27.32.32l.57.2a.57.57 0 0 1 0 1.08l-.57.2a.54.54 0 0 0-.32.32l-.2.57a.57.57 0 0 1-1.08 0l-.2-.57a.54.54 0 0 0-.32-.32l-.57-.2a.57.57 0 0 1 0-1.08l.57-.2a.54.54 0 0 0 .32-.32l.2-.57a.57.57 0 0 1 .54-.38Zm7.85.6c.21 0 .39.13.46.33l.12.35c.04.12.13.21.25.25l.35.12a.49.49 0 0 1 0 .92l-.35.12a.43.43 0 0 0-.25.25l-.12.35a.49.49 0 0 1-.92 0l-.12-.35a.43.43 0 0 0-.25-.25l-.35-.12a.49.49 0 0 1 0-.92l.35-.12a.43.43 0 0 0 .25-.25l.12-.35c.07-.2.25-.33.46-.33Z"></path>
</svg>
